<svg xmlns="http://www.w3.org/2000/svg" xmlns:xlink="http://www.w3.org/1999/xlink" width="593.308" height="426.046" viewBox="0 0 593.308 426.046">
  <defs>
    <linearGradient id="linear-gradient" x1="0.5" y1="1" x2="0.5" gradientUnits="objectBoundingBox">
      <stop offset="0" stop-color="gray" stop-opacity="0.251"/>
      <stop offset="0.535" stop-color="gray" stop-opacity="0.122"/>
      <stop offset="1" stop-color="gray" stop-opacity="0.102"/>
    </linearGradient>
  </defs>
  <g id="undraw_Savings_dwkw" transform="translate(0)">
    <ellipse id="Ellipse_13" data-name="Ellipse 13" cx="296.654" cy="36.058" rx="296.654" ry="36.058" transform="translate(0 353.93)" fill="#77e8b0" opacity="0.1"/>
    <path id="Path_4" data-name="Path 4" d="M997.486,753.456s15.472-19.688,14.221-39.221a37.937,37.937,0,0,1,5.97-23.243,63.8,63.8,0,0,1,7.27-9.127" transform="translate(-489.891 -345.794)" fill="none" stroke="#535461" stroke-miterlimit="10" stroke-width="2"/>
    <path id="Path_5" data-name="Path 5" d="M1047.573,655.692c-1.091,2.734.7,12.638.7,12.638s8.114-5.953,9.2-8.687a5.33,5.33,0,1,0-9.9-3.951Z" transform="translate(-513.232 -331.936)" fill="#77e8b0"/>
    <path id="Path_6" data-name="Path 6" d="M1020.989,675.418c.57,2.888,7.453,10.23,7.453,10.23s3.576-9.407,3.005-12.3a5.33,5.33,0,0,0-10.458,2.065Z" transform="translate(-500.873 -339.782)" fill="#77e8b0"/>
    <path id="Path_7" data-name="Path 7" d="M1001.112,722.246c1.95,2.205,11.6,5.069,11.6,5.069s-1.662-9.926-3.613-12.131a5.33,5.33,0,1,0-7.985,7.062Z" transform="translate(-490.965 -360.587)" fill="#77e8b0"/>
    <path id="Path_8" data-name="Path 8" d="M995.73,763.189c1.549,2.5,10.575,6.956,10.575,6.956s.039-10.064-1.511-12.567a5.33,5.33,0,0,0-9.064,5.611Z" transform="translate(-488.692 -380.142)" fill="#77e8b0"/>
    <path id="Path_9" data-name="Path 9" d="M1043.13,700.064c-2.721,1.123-12.645-.549-12.645-.549s5.859-8.183,8.58-9.305a5.33,5.33,0,0,1,4.065,9.854Z" transform="translate(-505.378 -349.521)" fill="#77e8b0"/>
    <path id="Path_10" data-name="Path 10" d="M1036.338,746.774c-2.932.257-11.9-4.308-11.9-4.308s8.039-6.055,10.971-6.312a5.33,5.33,0,1,1,.931,10.62Z" transform="translate(-502.539 -371.263)" fill="#77e8b0"/>
    <path id="Path_11" data-name="Path 11" d="M1022.331,791.644c-2.847.749-12.458-2.234-12.458-2.234s6.9-7.326,9.747-8.075a5.33,5.33,0,0,1,2.712,10.309Z" transform="translate(-495.704 -392.394)" fill="#77e8b0"/>
    <path id="Path_12" data-name="Path 12" d="M1047.573,655.692c-1.091,2.734.7,12.638.7,12.638s8.114-5.953,9.2-8.687a5.33,5.33,0,1,0-9.9-3.951Z" transform="translate(-513.232 -331.936)" opacity="0.25"/>
    <path id="Path_13" data-name="Path 13" d="M1020.989,675.418c.57,2.888,7.453,10.23,7.453,10.23s3.576-9.407,3.005-12.3a5.33,5.33,0,0,0-10.458,2.065Z" transform="translate(-500.873 -339.782)" opacity="0.25"/>
    <path id="Path_14" data-name="Path 14" d="M1001.112,722.246c1.95,2.205,11.6,5.069,11.6,5.069s-1.662-9.926-3.613-12.131a5.33,5.33,0,1,0-7.985,7.062Z" transform="translate(-490.965 -360.587)" opacity="0.25"/>
    <path id="Path_15" data-name="Path 15" d="M995.73,763.189c1.549,2.5,10.575,6.956,10.575,6.956s.039-10.064-1.511-12.567a5.33,5.33,0,0,0-9.064,5.611Z" transform="translate(-488.692 -380.142)" opacity="0.25"/>
    <path id="Path_16" data-name="Path 16" d="M1043.13,700.064c-2.721,1.123-12.645-.549-12.645-.549s5.859-8.183,8.58-9.305a5.33,5.33,0,0,1,4.065,9.854Z" transform="translate(-505.378 -349.521)" opacity="0.25"/>
    <path id="Path_17" data-name="Path 17" d="M1036.338,746.774c-2.932.257-11.9-4.308-11.9-4.308s8.039-6.055,10.971-6.312a5.33,5.33,0,1,1,.931,10.62Z" transform="translate(-502.539 -371.263)" opacity="0.25"/>
    <path id="Path_18" data-name="Path 18" d="M1022.331,791.644c-2.847.749-12.458-2.234-12.458-2.234s6.9-7.326,9.747-8.075a5.33,5.33,0,0,1,2.712,10.309Z" transform="translate(-495.704 -392.394)" opacity="0.25"/>
    <path id="Path_19" data-name="Path 19" d="M997.733,767.184s22.123-11.729,28.894-30.094a37.938,37.938,0,0,1,14.877-18.83,63.812,63.812,0,0,1,10.345-5.4" transform="translate(-490.007 -360.341)" fill="none" stroke="#535461" stroke-miterlimit="10" stroke-width="2"/>
    <path id="Path_20" data-name="Path 20" d="M1103.912,689.759c-2.105,2.058-4.485,11.836-4.485,11.836s9.83-2.155,11.936-4.212a5.33,5.33,0,0,0-7.451-7.624Z" transform="translate(-537.734 -348.786)" fill="#77e8b0"/>
    <path id="Path_21" data-name="Path 21" d="M1074.226,697.029c-.649,2.871,2.668,12.373,2.668,12.373s7.081-7.151,7.73-10.023a5.33,5.33,0,1,0-10.4-2.35Z" transform="translate(-525.867 -350.96)" fill="#77e8b0"/>
    <path id="Path_22" data-name="Path 22" d="M1037.035,731.783c.889,2.806,8.549,9.333,8.549,9.333s2.5-9.748,1.613-12.554a5.33,5.33,0,0,0-10.162,3.22Z" transform="translate(-508.334 -365.964)" fill="#77e8b0"/>
    <path id="Path_23" data-name="Path 23" d="M1015.524,767.035c.4,2.916,6.849,10.644,6.849,10.644s4.114-9.185,3.711-12.1a5.33,5.33,0,0,0-10.56,1.457Z" transform="translate(-498.333 -382.922)" fill="#77e8b0"/>
    <path id="Path_24" data-name="Path 24" d="M1083.273,730.427c-2.943-.076-11.338-5.626-11.338-5.626s8.672-5.107,11.615-5.03a5.33,5.33,0,0,1-.277,10.657Z" transform="translate(-524.831 -363.583)" fill="#77e8b0"/>
    <path id="Path_25" data-name="Path 25" d="M1059.347,770.719c-2.785-.953-9.135-8.761-9.135-8.761s9.8-2.278,12.588-1.324a5.33,5.33,0,0,1-3.453,10.085Z" transform="translate(-514.636 -382.652)" fill="#77e8b0"/>
    <path id="Path_26" data-name="Path 26" d="M1027.671,805.924c-2.906-.469-10.484-7.091-10.484-7.091s9.277-3.9,12.183-3.433a5.33,5.33,0,1,1-1.7,10.524Z" transform="translate(-499.137 -399.059)" fill="#77e8b0"/>
    <path id="Path_27" data-name="Path 27" d="M443.2,99.047c-29.314-1.018-57.233-10.481-83.893-20.835S306.236,56.388,277.625,50.9c-18.4-3.529-39.447-4.028-54.275,5.839-14.269,9.495-18.879,25.884-21.358,41.092-1.865,11.442-2.961,23.484,2.149,34.195,3.548,7.437,9.847,13.688,14.2,20.81,15.158,24.785,4.444,55.348-11.982,79.549-7.705,11.352-16.643,22.182-22.589,34.266s-8.7,25.932-3.494,38.259c5.156,12.219,17.444,21.4,30.755,27.851,27.034,13.111,58.892,16.863,89.957,18.988,68.766,4.7,137.9,2.668,206.848.628,25.516-.755,51.145-1.52,76.247-5.465,13.939-2.191,28.331-5.669,38.451-14.064,12.847-10.658,16.031-28.7,7.423-42.068-14.44-22.416-54.364-27.983-64.457-52.039-5.555-13.242.15-27.991,8.223-40.272,17.319-26.344,46.348-49.456,47.877-79.569,1.05-20.682-12.9-41.393-34.482-51.179-22.618-10.257-53.98-8.967-70.666,8.012C499.272,93.218,469.078,99.945,443.2,99.047Z" transform="translate(-105.075 -48.59)" fill="#77e8b0" opacity="0.1"/>
    <ellipse id="Ellipse_14" data-name="Ellipse 14" cx="19.931" cy="21.156" rx="19.931" ry="21.156" transform="translate(268 331.503)" fill="#fbd56f"/>
    <ellipse id="Ellipse_15" data-name="Ellipse 15" cx="19.931" cy="21.156" rx="19.931" ry="21.156" transform="translate(268 331.503)" opacity="0.1"/>
    <ellipse id="Ellipse_16" data-name="Ellipse 16" cx="19.931" cy="20.685" rx="19.931" ry="20.685" transform="translate(271.44 332.446)" fill="#fbd56f"/>
    <path id="Path_28" data-name="Path 28" d="M602.79,747.9l-2.073-1.154a25.113,25.113,0,0,0-.653,6.93,1.437,1.437,0,0,0,1.079,1.241c4.769,1.184,27.5,6.23,43.132-.877a1.434,1.434,0,0,0,.831-1.153,21.473,21.473,0,0,0-.758-6.142C643.765,745.207,602.79,747.9,602.79,747.9Z" transform="translate(-303.346 -376.019)" fill="#fbd56f"/>
    <path id="Path_29" data-name="Path 29" d="M602.79,747.9l-2.073-1.154a25.113,25.113,0,0,0-.653,6.93,1.437,1.437,0,0,0,1.079,1.241c4.769,1.184,27.5,6.23,43.132-.877a1.434,1.434,0,0,0,.831-1.153,21.473,21.473,0,0,0-.758-6.142C643.765,745.207,602.79,747.9,602.79,747.9Z" transform="translate(-303.346 -376.019)" opacity="0.1"/>
    <ellipse id="Ellipse_17" data-name="Ellipse 17" cx="21.816" cy="4.918" rx="21.816" ry="4.918" transform="translate(297.371 365.804)" fill="#fbd56f"/>
    <path id="Path_30" data-name="Path 30" d="M618.5,734.223l-2.073-1.154a25.115,25.115,0,0,0-.653,6.93,1.437,1.437,0,0,0,1.08,1.241c4.769,1.184,27.5,6.23,43.132-.877a1.434,1.434,0,0,0,.831-1.153,21.471,21.471,0,0,0-.758-6.142C659.47,731.536,618.5,734.223,618.5,734.223Z" transform="translate(-310.717 -369.603)" fill="#fbd56f"/>
    <path id="Path_31" data-name="Path 31" d="M618.5,734.223l-2.073-1.154a25.115,25.115,0,0,0-.653,6.93,1.437,1.437,0,0,0,1.08,1.241c4.769,1.184,27.5,6.23,43.132-.877a1.434,1.434,0,0,0,.831-1.153,21.471,21.471,0,0,0-.758-6.142C659.47,731.536,618.5,734.223,618.5,734.223Z" transform="translate(-310.717 -369.603)" opacity="0.1"/>
    <ellipse id="Ellipse_18" data-name="Ellipse 18" cx="21.816" cy="4.918" rx="21.816" ry="4.918" transform="translate(305.705 358.548)" fill="#fbd56f"/>
    <path id="Path_32" data-name="Path 32" d="M632.38,716.255l-2.073-1.154a25.117,25.117,0,0,0-.653,6.93,1.436,1.436,0,0,0,1.08,1.241c4.769,1.184,27.5,6.231,43.132-.877a1.434,1.434,0,0,0,.831-1.153,21.473,21.473,0,0,0-.758-6.142C673.355,713.567,632.38,716.255,632.38,716.255Z" transform="translate(-317.233 -361.17)" fill="#fbd56f"/>
    <path id="Path_33" data-name="Path 33" d="M632.38,716.255l-2.073-1.154a25.117,25.117,0,0,0-.653,6.93,1.436,1.436,0,0,0,1.08,1.241c4.769,1.184,27.5,6.231,43.132-.877a1.434,1.434,0,0,0,.831-1.153,21.473,21.473,0,0,0-.758-6.142C673.355,713.567,632.38,716.255,632.38,716.255Z" transform="translate(-317.233 -361.17)" opacity="0.1"/>
    <ellipse id="Ellipse_19" data-name="Ellipse 19" cx="21.816" cy="4.918" rx="21.816" ry="4.918" transform="translate(313.074 349.013)" fill="#fbd56f"/>
    <path id="Path_34" data-name="Path 34" d="M617,697.549l-2.073-1.154a25.114,25.114,0,0,0-.653,6.93,1.437,1.437,0,0,0,1.08,1.241c4.769,1.184,27.5,6.231,43.132-.877a1.434,1.434,0,0,0,.831-1.153,21.474,21.474,0,0,0-.758-6.142C657.979,694.862,617,697.549,617,697.549Z" transform="translate(-310.017 -352.391)" fill="#fbd56f"/>
    <path id="Path_35" data-name="Path 35" d="M617,697.549l-2.073-1.154a25.114,25.114,0,0,0-.653,6.93,1.437,1.437,0,0,0,1.08,1.241c4.769,1.184,27.5,6.231,43.132-.877a1.434,1.434,0,0,0,.831-1.153,21.474,21.474,0,0,0-.758-6.142C657.979,694.862,617,697.549,617,697.549Z" transform="translate(-310.017 -352.391)" opacity="0.1"/>
    <ellipse id="Ellipse_20" data-name="Ellipse 20" cx="21.816" cy="4.918" rx="21.816" ry="4.918" transform="translate(304.914 339.086)" fill="#fbd56f"/>
    <path id="Path_36" data-name="Path 36" d="M651.595,682.538l-2.073-1.154a25.112,25.112,0,0,0-.653,6.93,1.437,1.437,0,0,0,1.08,1.241c4.769,1.184,27.5,6.23,43.132-.877a1.434,1.434,0,0,0,.831-1.153,21.471,21.471,0,0,0-.758-6.142C692.57,679.85,651.595,682.538,651.595,682.538Z" transform="translate(-326.251 -345.347)" fill="#fbd56f"/>
    <path id="Path_37" data-name="Path 37" d="M651.595,682.538l-2.073-1.154a25.112,25.112,0,0,0-.653,6.93,1.437,1.437,0,0,0,1.08,1.241c4.769,1.184,27.5,6.23,43.132-.877a1.434,1.434,0,0,0,.831-1.153,21.471,21.471,0,0,0-.758-6.142C692.57,679.85,651.595,682.538,651.595,682.538Z" transform="translate(-326.251 -345.347)" opacity="0.1"/>
    <ellipse id="Ellipse_21" data-name="Ellipse 21" cx="21.816" cy="4.918" rx="21.816" ry="4.918" transform="translate(323.271 331.12)" fill="#fbd56f"/>
    <path id="Path_38" data-name="Path 38" d="M628.224,672.448l-2.073-1.154a25.115,25.115,0,0,0-.653,6.93,1.437,1.437,0,0,0,1.08,1.241c4.769,1.184,27.5,6.231,43.132-.877a1.434,1.434,0,0,0,.831-1.153,21.475,21.475,0,0,0-.758-6.142C669.2,669.761,628.224,672.448,628.224,672.448Z" transform="translate(-315.282 -340.611)" fill="#fbd56f"/>
    <path id="Path_39" data-name="Path 39" d="M628.224,672.448l-2.073-1.154a25.115,25.115,0,0,0-.653,6.93,1.437,1.437,0,0,0,1.08,1.241c4.769,1.184,27.5,6.231,43.132-.877a1.434,1.434,0,0,0,.831-1.153,21.475,21.475,0,0,0-.758-6.142C669.2,669.761,628.224,672.448,628.224,672.448Z" transform="translate(-315.282 -340.611)" opacity="0.1"/>
    <ellipse id="Ellipse_22" data-name="Ellipse 22" cx="21.816" cy="4.918" rx="21.816" ry="4.918" transform="translate(310.868 325.765)" fill="#fbd56f"/>
    <path id="Path_40" data-name="Path 40" d="M643.827,652.97l-2.073-1.154a25.111,25.111,0,0,0-.653,6.93,1.437,1.437,0,0,0,1.08,1.241c4.769,1.184,27.5,6.231,43.132-.877a1.434,1.434,0,0,0,.831-1.153,21.467,21.467,0,0,0-.758-6.142C684.8,650.283,643.827,652.97,643.827,652.97Z" transform="translate(-322.605 -331.47)" fill="#fbd56f"/>
    <path id="Path_41" data-name="Path 41" d="M643.827,652.97l-2.073-1.154a25.111,25.111,0,0,0-.653,6.93,1.437,1.437,0,0,0,1.08,1.241c4.769,1.184,27.5,6.231,43.132-.877a1.434,1.434,0,0,0,.831-1.153,21.467,21.467,0,0,0-.758-6.142C684.8,650.283,643.827,652.97,643.827,652.97Z" transform="translate(-322.605 -331.47)" opacity="0.1"/>
    <ellipse id="Ellipse_23" data-name="Ellipse 23" cx="21.816" cy="4.918" rx="21.816" ry="4.918" transform="translate(319.149 315.428)" fill="#fbd56f"/>
    <path id="Path_42" data-name="Path 42" d="M651.524,629.85l-2.073-1.154a25.112,25.112,0,0,0-.653,6.93,1.437,1.437,0,0,0,1.08,1.241c4.769,1.184,27.5,6.231,43.132-.877a1.434,1.434,0,0,0,.831-1.152,21.475,21.475,0,0,0-.758-6.142C692.5,627.163,651.524,629.85,651.524,629.85Z" transform="translate(-326.218 -320.619)" fill="#fbd56f"/>
    <path id="Path_43" data-name="Path 43" d="M651.524,629.85l-2.073-1.154a25.112,25.112,0,0,0-.653,6.93,1.437,1.437,0,0,0,1.08,1.241c4.769,1.184,27.5,6.231,43.132-.877a1.434,1.434,0,0,0,.831-1.152,21.475,21.475,0,0,0-.758-6.142C692.5,627.163,651.524,629.85,651.524,629.85Z" transform="translate(-326.218 -320.619)" opacity="0.1"/>
    <ellipse id="Ellipse_24" data-name="Ellipse 24" cx="21.816" cy="4.918" rx="21.816" ry="4.918" transform="translate(323.233 303.159)" fill="#fbd56f"/>
    <path id="Path_44" data-name="Path 44" d="M720.919,753.257l-2.073-1.154a25.114,25.114,0,0,0-.653,6.93,1.437,1.437,0,0,0,1.08,1.241c4.769,1.184,27.5,6.23,43.132-.877a1.434,1.434,0,0,0,.831-1.153,21.472,21.472,0,0,0-.758-6.142C761.894,750.57,720.919,753.257,720.919,753.257Z" transform="translate(-358.785 -378.536)" fill="#fbd56f"/>
    <path id="Path_45" data-name="Path 45" d="M720.919,753.257l-2.073-1.154a25.114,25.114,0,0,0-.653,6.93,1.437,1.437,0,0,0,1.08,1.241c4.769,1.184,27.5,6.23,43.132-.877a1.434,1.434,0,0,0,.831-1.153,21.472,21.472,0,0,0-.758-6.142C761.894,750.57,720.919,753.257,720.919,753.257Z" transform="translate(-358.785 -378.536)" opacity="0.1"/>
    <ellipse id="Ellipse_25" data-name="Ellipse 25" cx="21.816" cy="4.918" rx="21.816" ry="4.918" transform="translate(360.06 368.649)" fill="#fbd56f"/>
    <path id="Path_46" data-name="Path 46" d="M734.8,735.289l-2.073-1.154a25.117,25.117,0,0,0-.653,6.93,1.437,1.437,0,0,0,1.08,1.241c4.769,1.184,27.5,6.231,43.132-.877a1.434,1.434,0,0,0,.831-1.153,21.472,21.472,0,0,0-.758-6.142C775.778,732.6,734.8,735.289,734.8,735.289Z" transform="translate(-365.302 -370.103)" fill="#fbd56f"/>
    <path id="Path_47" data-name="Path 47" d="M734.8,735.289l-2.073-1.154a25.117,25.117,0,0,0-.653,6.93,1.437,1.437,0,0,0,1.08,1.241c4.769,1.184,27.5,6.231,43.132-.877a1.434,1.434,0,0,0,.831-1.153,21.472,21.472,0,0,0-.758-6.142C775.778,732.6,734.8,735.289,734.8,735.289Z" transform="translate(-365.302 -370.103)" opacity="0.1"/>
    <ellipse id="Ellipse_26" data-name="Ellipse 26" cx="21.816" cy="4.918" rx="21.816" ry="4.918" transform="translate(367.428 359.114)" fill="#fbd56f"/>
    <path id="Path_48" data-name="Path 48" d="M719.427,716.583l-2.073-1.154a25.114,25.114,0,0,0-.653,6.93,1.436,1.436,0,0,0,1.08,1.241c4.769,1.185,27.5,6.231,43.132-.877a1.434,1.434,0,0,0,.831-1.153,21.474,21.474,0,0,0-.758-6.142C760.4,713.9,719.427,716.583,719.427,716.583Z" transform="translate(-358.085 -361.324)" fill="#fbd56f"/>
    <path id="Path_49" data-name="Path 49" d="M719.427,716.583l-2.073-1.154a25.114,25.114,0,0,0-.653,6.93,1.436,1.436,0,0,0,1.08,1.241c4.769,1.185,27.5,6.231,43.132-.877a1.434,1.434,0,0,0,.831-1.153,21.474,21.474,0,0,0-.758-6.142C760.4,713.9,719.427,716.583,719.427,716.583Z" transform="translate(-358.085 -361.324)" opacity="0.1"/>
    <ellipse id="Ellipse_27" data-name="Ellipse 27" cx="21.816" cy="4.918" rx="21.816" ry="4.918" transform="translate(359.268 349.187)" fill="#fbd56f"/>
    <path id="Path_50" data-name="Path 50" d="M754.018,701.572l-2.073-1.154a25.117,25.117,0,0,0-.653,6.93,1.437,1.437,0,0,0,1.079,1.241c4.769,1.184,27.5,6.23,43.132-.877a1.434,1.434,0,0,0,.831-1.153,21.47,21.47,0,0,0-.758-6.142C794.993,698.884,754.018,701.572,754.018,701.572Z" transform="translate(-374.319 -354.279)" fill="#fbd56f"/>
    <path id="Path_51" data-name="Path 51" d="M754.018,701.572l-2.073-1.154a25.117,25.117,0,0,0-.653,6.93,1.437,1.437,0,0,0,1.079,1.241c4.769,1.184,27.5,6.23,43.132-.877a1.434,1.434,0,0,0,.831-1.153,21.47,21.47,0,0,0-.758-6.142C794.993,698.884,754.018,701.572,754.018,701.572Z" transform="translate(-374.319 -354.279)" opacity="0.1"/>
    <ellipse id="Ellipse_28" data-name="Ellipse 28" cx="21.816" cy="4.918" rx="21.816" ry="4.918" transform="translate(377.625 341.221)" fill="#fbd56f"/>
    <path id="Path_52" data-name="Path 52" d="M730.647,691.482l-2.073-1.154a25.116,25.116,0,0,0-.653,6.93A1.437,1.437,0,0,0,729,698.5c4.769,1.184,27.5,6.23,43.132-.877a1.434,1.434,0,0,0,.831-1.153,21.473,21.473,0,0,0-.758-6.142C771.622,688.794,730.647,691.482,730.647,691.482Z" transform="translate(-363.351 -349.544)" fill="#fbd56f"/>
    <path id="Path_53" data-name="Path 53" d="M730.647,691.482l-2.073-1.154a25.116,25.116,0,0,0-.653,6.93A1.437,1.437,0,0,0,729,698.5c4.769,1.184,27.5,6.23,43.132-.877a1.434,1.434,0,0,0,.831-1.153,21.473,21.473,0,0,0-.758-6.142C771.622,688.794,730.647,691.482,730.647,691.482Z" transform="translate(-363.351 -349.544)" opacity="0.1"/>
    <ellipse id="Ellipse_29" data-name="Ellipse 29" cx="21.816" cy="4.918" rx="21.816" ry="4.918" transform="translate(365.223 335.866)" fill="#fbd56f"/>
    <path id="Path_54" data-name="Path 54" d="M746.25,672l-2.073-1.154a25.117,25.117,0,0,0-.653,6.93,1.437,1.437,0,0,0,1.08,1.241c4.769,1.184,27.5,6.231,43.132-.877a1.435,1.435,0,0,0,.831-1.153,21.472,21.472,0,0,0-.758-6.142C787.226,669.316,746.25,672,746.25,672Z" transform="translate(-370.674 -340.403)" fill="#fbd56f"/>
    <path id="Path_55" data-name="Path 55" d="M746.25,672l-2.073-1.154a25.117,25.117,0,0,0-.653,6.93,1.437,1.437,0,0,0,1.08,1.241c4.769,1.184,27.5,6.231,43.132-.877a1.435,1.435,0,0,0,.831-1.153,21.472,21.472,0,0,0-.758-6.142C787.226,669.316,746.25,672,746.25,672Z" transform="translate(-370.674 -340.403)" opacity="0.1"/>
    <ellipse id="Ellipse_30" data-name="Ellipse 30" cx="21.816" cy="4.918" rx="21.816" ry="4.918" transform="translate(373.503 325.53)" fill="#fbd56f"/>
    <path id="Path_56" data-name="Path 56" d="M753.947,648.884l-2.073-1.154a25.117,25.117,0,0,0-.653,6.93A1.436,1.436,0,0,0,752.3,655.9c4.769,1.184,27.5,6.231,43.132-.877a1.434,1.434,0,0,0,.831-1.153,21.468,21.468,0,0,0-.758-6.142C794.922,646.2,753.947,648.884,753.947,648.884Z" transform="translate(-374.286 -329.552)" fill="#fbd56f"/>
    <path id="Path_57" data-name="Path 57" d="M753.947,648.884l-2.073-1.154a25.117,25.117,0,0,0-.653,6.93A1.436,1.436,0,0,0,752.3,655.9c4.769,1.184,27.5,6.231,43.132-.877a1.434,1.434,0,0,0,.831-1.153,21.468,21.468,0,0,0-.758-6.142C794.922,646.2,753.947,648.884,753.947,648.884Z" transform="translate(-374.286 -329.552)" opacity="0.1"/>
    <ellipse id="Ellipse_31" data-name="Ellipse 31" cx="21.816" cy="4.918" rx="21.816" ry="4.918" transform="translate(377.588 313.26)" fill="#fbd56f"/>
    <path id="Path_58" data-name="Path 58" d="M880.094,582.726c-3.037-.107-3.145-1.284-7.05-3.318-2.2-1.147-5.551-4.48-8.045-7.162q-.3-.322-.58-.629l1.034-.021s-.976-8.562-.108-10.595.217-14.126.217-14.126.542-9.2-.434-11.344.325-15.839.325-15.839.868-8.133,1.085-24.721-9.544-17.123-9.544-17.123-1.3-.1-3.277-.289l-.592-.057c1.28-2.679,2.026-4.684,2.026-4.684s-1.627-15.518-2.061-18.193-3.037-13.7-3.037-13.7-1.844-4.709-2.928-8.026-4.338-7.17-4.338-7.17-5.857-11.558-7.483-13.27c-.755-.794-1.813-1.8-2.731-2.641l-.477-.437a19.37,19.37,0,0,0,.388-3.663s-6.073-5.993-6.507-7.491-6.182-7.063-6.182-7.063-3.254-5.993-6.941-6.1a30.08,30.08,0,0,0-5.223.158c.757-2.8,1.653-5.74,2.457-8.26.089-.281.177-.555.264-.824a18.573,18.573,0,0,0,6.662-8.058c.077-.174.146-.349.216-.525.039,0,.078.007.117.007a2.909,2.909,0,0,0,.456-.041c1.214-.208,2.241-1.579,1.682-2.661a.4.4,0,0,0,.354.194c.4-.013.9-.6.993-1.114.016-.089.025-.18.039-.269.017-.112.036-.223.049-.336s.02-.211.029-.317.018-.218.023-.328.008-.2.01-.307c0-.118,0-.236,0-.354,0-.094,0-.189-.007-.283-.007-.143-.019-.286-.032-.43-.005-.059-.007-.118-.013-.176v.008a9.592,9.592,0,0,0-.349-1.726c-.6-1.989-1.857-3.962-1.372-5.981.005-.022.015-.042.021-.063v0c.4-1.567,1.76-2.706,2.59-4.106.079-.134.149-.271.217-.41.012-.025.027-.049.04-.075.05-.1.092-.211.136-.317.028-.068.06-.136.085-.2.035-.093.064-.188.094-.283s.057-.172.081-.259.042-.169.062-.254c.024-.1.048-.2.068-.307.014-.074.025-.148.037-.223.018-.117.035-.234.047-.352.007-.064.012-.128.017-.192.01-.131.018-.263.021-.395,0-.053,0-.106,0-.159q0-.216-.011-.433c0-.043,0-.087-.008-.13-.011-.154-.027-.307-.047-.46,0-.022,0-.044-.007-.066v.006a7.71,7.71,0,0,0-1.553-3.689,9.5,9.5,0,0,0-7.806-3.376,13.085,13.085,0,0,1-2.454.045,8.109,8.109,0,0,1-3.6-1.9l-9.084-7a11.211,11.211,0,0,0-3.434-2.041,3.835,3.835,0,0,0-3.773.681c-1.7,1.678-.62,4.567-1.3,6.843-.591,1.971-2.5,3.307-4.466,3.973s-4.08.812-6.105,1.294a3.372,3.372,0,0,0-1.634.751,3.161,3.161,0,0,0-.71,2.275,12.269,12.269,0,0,0,1.41,5.787c.383.727.847,1.461,1.254,2.206.034.062.066.123.1.185.046.085.091.171.135.257q.106.209.2.418c.027.06.052.121.078.182q.064.149.121.3.037.1.07.19c.041.117.077.235.111.352a3.918,3.918,0,0,1,.059,2.134,7.925,7.925,0,0,1-2,2.935,5.71,5.71,0,0,0-1.338,2.481l0,.021a1.989,1.989,0,0,0-.025.654c0,.027.007.055.012.081a1.163,1.163,0,0,0,.04.143,1,1,0,0,0,.043.1.927.927,0,0,0,.056.111.854.854,0,0,0,.138.163,1.45,1.45,0,0,0,.215.142c.03.015.06.029.093.041a1.284,1.284,0,0,0,.222.061c.021,0,.039.011.061.014a2.037,2.037,0,0,0,.349.015c.034,0,.07-.005.105-.008a3.325,3.325,0,0,0,.333-.042c.041-.007.08-.014.122-.022a5.27,5.27,0,0,0,.512-.131,11.48,11.48,0,0,0,1.772-.7c0,.065-.005.13-.005.195,0,.112,0,.23.011.342a18.036,18.036,0,0,0,1.172,6.138,18.54,18.54,0,0,0,5.656,7.814q-.047.277-.1.557c-.523,2.566-1.616,5.141-2.291,4.942a9.2,9.2,0,0,0-2.011-.22c-.2-.006-.4-.009-.591-.01h0a8.017,8.017,0,0,0-1.844,0,2,2,0,0,1-.807-.111,11,11,0,0,0-5.418-.3c-3.75.768-9.455,2.175-11.019,3.857-2.386,2.568-5.856,5.03-9.761,15.732,0,0-1.952,6.528-3.471,7.384a10.131,10.131,0,0,1,1.03-.463,2.748,2.748,0,0,1-.813.891,11.971,11.971,0,0,1,1.708-.712c-1.185,6.973.569,26.917.569,26.917s-1.41,3.439.434,5.473a10.3,10.3,0,0,1,2,4.426l-.267.415v0c-.976,1.513-2.282,3.487-3.139,4.574-1.518,1.926-1.084,8.026-1.084,8.026s-.326,2.89-1.41,3.96-.868,5.03-.868,5.03l-2.82,10.381s-2.6,2.354-2.6,3.425-2.061,4.067-2.061,4.067-3.145,5.137,0,4.388a9.87,9.87,0,0,0,3.176-1.6l0,.077q-.007.282-.012.574c-.089,5.595.521,13.467,4.646,13.467,6.4,0,22.884,7.6,22.884,7.6,3.362,2.568,7.917,1.712,7.917,1.712s-8.026,8.026-7.809,11.344-4.555,8.776-4.555,8.776l-14.75,28.788a22.074,22.074,0,0,0,1.057,5.9c-.07.061-.143.12-.211.182-5.668,5.178-6.16,15.428-6.16,15.428l-1.3,5.244,19.738,8.669s25.595.535,30.041-.642,3.471-6.1-2.386-7.063-7.266-3.532-9.219-4.709c-1.317-.794-5.993-5.927-8.9-9.18l-.128-.144.672-3.732c1.3-.642,3.254-7.063,3.254-7.063s0-2.568,1.3-3.318,4.013-8.454,4.013-8.454,5.857-9.739,5.531-11.023,4.23-7.812,4.23-7.812,7.7-7.491,7.375-8.829,6.182-8.187,6.182-8.187a21.72,21.72,0,0,0,5.759-6.631c.586-.094,1.215-.195,1.878-.306,8.516-1.4,22.667-3.919,24.248-4.621,2.169-.963,1.735,3.318.868,6.956s-1.518,21.083-.542,23.33.542,5.886.542,5.886L839.207,558l.868,4.174s-2.928,2.354-1.735,3.746.108,7.384.108,7.384c.1-.038.224-.075.36-.111-.1.235-.2.476-.293.73-1.681,4.792-.718,12.652-.718,12.652v6.207s30.041.535,36.657.535,15.726-3.211,16.268-5.779S883.13,582.833,880.094,582.726ZM794.65,471.315l-1.968.166A16.348,16.348,0,0,1,794.65,471.315Zm12-82.144c.276-1.238.61-2.57.979-3.935Zm3.711,85.146a7.962,7.962,0,0,1-5.844.006l-.013-.006s.108-7.491.976-10.595,2.061-8.776,2.061-8.776a114.879,114.879,0,0,1,1.952-11.344c.976-3.532,4.772-23.223,6.724-24.507s3.037.963,3.037.963.292-.006.78-.06q.138.308.311.655c2.315,4.677,9.1,14.281,9.1,14.281a15.638,15.638,0,0,1,4.989,4.923c1.844,3.1,2.386,10.381,2.386,10.381s4.121,16.16,6.073,18.407c.976,1.124.542,1.794-.134,2.181a9.608,9.608,0,0,0-3.423,3.161c-.278.441-.572.925-.87,1.441-.746-.173-1.414-.352-1.971-.54-5.314-1.785-23.209-1.856-26.137-.571Z" transform="translate(-368.941 -179.062)" fill="url(#linear-gradient)"/>
    <path id="Path_59" data-name="Path 59" d="M922.911,800.74V806.9s29.4.531,35.87.531,15.388-3.184,15.918-5.731-7.429-4.669-10.4-4.776-3.077-1.274-6.9-3.29c-2.156-1.138-5.431-4.442-7.872-7.1-1.883-2.052-3.271-3.723-3.271-3.723s-15.813-.318-20.376,2.229a5.522,5.522,0,0,0-2.269,3.16C921.969,792.947,922.911,800.74,922.911,800.74Z" transform="translate(-454.766 -393.161)" fill="#434175"/>
    <path id="Path_60" data-name="Path 60" d="M924.472,788.194c3.315-1.153,22.725-1.6,25.915-1.666-1.883-2.052-3.271-3.723-3.271-3.723s-15.812-.318-20.376,2.229A5.522,5.522,0,0,0,924.472,788.194Z" transform="translate(-455.625 -393.161)" opacity="0.1"/>
    <path id="Path_61" data-name="Path 61" d="M763.77,604.286s.613.371,1.715,1.036c.2.119.414.25.643.388.7.422,1.537.925,2.494,1.5,13.338,8.038,49.721,29.827,51.712,29.653.522-.045,2.091-.28,4.256-.632.573-.093,1.188-.193,1.838-.3,8.333-1.384,22.18-3.886,23.727-4.582,2.122-.955,1.7,3.29.849,6.9s-1.486,20.906-.531,23.135.531,5.837.531,5.837l-1.273,19.421.849,4.139s-2.865,2.335-1.7,3.714.106,7.323.106,7.323c3.4-1.274,26.425-1.7,26.425-1.7s-.955-8.49-.106-10.506.212-14.008.212-14.008.531-9.127-.424-11.249.318-15.706.318-15.706.849-8.065,1.061-24.515-9.339-16.98-9.339-16.98-1.274-.1-3.207-.287a142.245,142.245,0,0,1-14.3-1.972,23.792,23.792,0,0,1-2.553-.677c-5.2-1.77-22.71-1.84-25.576-.567a7.7,7.7,0,0,1-5.718.006l-.013-.006-2.229-3.608-21.286,1.815-2.256.193-20.955,1.787-1.441.123Z" transform="translate(-380.205 -307.393)" fill="#565387"/>
    <path id="Path_62" data-name="Path 62" d="M921.745,624.856c6.183,3.014,12.083-7.671,14.834-13.7a142.271,142.271,0,0,1-14.3-1.972C919.512,613.832,915.816,621.968,921.745,624.856Z" transform="translate(-452.857 -311.684)" opacity="0.1"/>
    <path id="Path_63" data-name="Path 63" d="M889.552,493.457a6.482,6.482,0,0,0,.749,2.076c2.265,4.638,8.908,14.161,8.908,14.161a15.383,15.383,0,0,1,4.882,4.882c1.8,3.078,2.335,10.294,2.335,10.294s4.033,16.025,5.943,18.253c.955,1.114.531,1.779-.132,2.163a9.453,9.453,0,0,0-3.349,3.135c-2.783,4.474-7.225,13.348-.976,16.394,8.49,4.139,16.449-17.553,16.449-17.553s-1.592-15.388-2.016-18.041-2.972-13.584-2.972-13.584-1.8-4.669-2.865-7.959-4.245-7.11-4.245-7.11-5.731-11.461-7.322-13.159c-.739-.787-1.774-1.781-2.672-2.619-1.038-.97-1.891-1.732-1.891-1.732S889.446,490.91,889.552,493.457Z" transform="translate(-439.236 -252.491)" fill="#ee8e9e"/>
    <path id="Path_64" data-name="Path 64" d="M753.971,793.463l19.314,8.6s25.045.531,29.4-.637,3.4-6.049-2.335-7-7.11-3.5-9.02-4.669c-1.288-.787-5.864-5.877-8.7-9.1-1.367-1.554-2.333-2.676-2.333-2.676s-3.714-9.87-14.008-7.641a10.548,10.548,0,0,0-5.009,2.636c-5.546,5.134-6.028,15.3-6.028,15.3Z" transform="translate(-375.607 -387.157)" fill="#434175"/>
    <path id="Path_65" data-name="Path 65" d="M768.213,605.335c.7.422,1.537.925,2.494,1.5,13.338,8.038,49.721,29.827,51.712,29.653.522-.045,2.091-.28,4.256-.633.573-.093,1.189-.193,1.838-.3.025-.04.049-.081.072-.121a24.392,24.392,0,0,0,2.43-5.947c2.229-8.49-8.808-14.963-8.808-14.963l-2.335-1.815c-2.653-4.468-21.755-8.691-21.755-8.691l-2.462-1.654-1.314-.883-.346-.231-2.988-2.008L776.043,600.3l-4.445,2.857-.469.3-1.649,1.061Z" transform="translate(-382.291 -307.018)" opacity="0.1"/>
    <path id="Path_66" data-name="Path 66" d="M767.729,772.965c4.062,14.051,21.034,9.462,21.034,9.462l.316-1.781c-1.367-1.554-2.333-2.676-2.333-2.676s-3.714-9.87-14.008-7.641A10.548,10.548,0,0,0,767.729,772.965Z" transform="translate(-382.064 -387.157)" opacity="0.1"/>
    <path id="Path_67" data-name="Path 67" d="M755.343,629.437c6.261,0,22.392,7.535,22.392,7.535,3.29,2.547,7.747,1.7,7.747,1.7s-7.853,7.959-7.641,11.249-4.457,8.7-4.457,8.7l-14.433,28.547c1.061,20.27,21.861,14.645,21.861,14.645l.849-4.775c1.274-.637,3.184-7,3.184-7s0-2.547,1.273-3.29,3.927-8.384,3.927-8.384,5.731-9.657,5.412-10.931,4.139-7.747,4.139-7.747,7.535-7.429,7.216-8.755,6.049-8.118,6.049-8.118a21.43,21.43,0,0,0,5.635-6.576,24.4,24.4,0,0,0,2.43-5.947c1.8-6.836-5.013-12.368-7.732-14.259-.658-.458-1.076-.7-1.076-.7l-2.335-1.815c-1.206-2.033-5.816-4.013-10.483-5.569-3.366-1.123-6.764-2.025-8.936-2.566-1.437-.357-2.337-.556-2.337-.556l-2.462-1.653-.866-.581-.794-.533-2.988-2.008-6.658.471-8.305.59-4.444,2.857-2.118,1.363-8.295,5.332s-.219,2.042-.289,4.782c0,.212-.009.427-.013.647C750.71,621.631,751.306,629.437,755.343,629.437Z" transform="translate(-374.113 -307.393)" fill="#565387"/>
    <path id="Path_68" data-name="Path 68" d="M819.563,422.345l2.229,7.959s3.927,13.69,4.351,14.645,10.719,10.612,11.143,10.825,6.03,3.4,6.03,3.4.443-17.51.019-22.6a14.538,14.538,0,0,1,.276-3.336,125.472,125.472,0,0,1,3.81-14.354c1.189-3.778,2.176-6.611,2.176-6.611s-24.833-1.061-23.984,1.38a8.721,8.721,0,0,1-.093,4.014c-.512,2.545-1.581,5.1-2.241,4.9a8.886,8.886,0,0,0-1.967-.219C820.392,422.311,819.563,422.345,819.563,422.345Z" transform="translate(-406.389 -219.159)" fill="#ee8e9e"/>
    <path id="Path_69" data-name="Path 69" d="M830.785,417.657a18.367,18.367,0,0,0,21.9,1.218c1.189-3.778,2.176-6.612,2.176-6.612s-24.833-1.061-23.984,1.38A8.719,8.719,0,0,1,830.785,417.657Z" transform="translate(-411.656 -219.159)" opacity="0.1"/>
    <path id="Path_70" data-name="Path 70" d="M855.086,378.641a18.288,18.288,0,0,1-.918,5.731,14.969,14.969,0,0,1-.531,1.406,18.361,18.361,0,0,1-34.113-.711,18.1,18.1,0,0,1-1.146-6.087c-.011-.111-.011-.228-.011-.34a18.359,18.359,0,1,1,36.718,0Z" transform="translate(-405.829 -194.871)" fill="#ee8e9e"/>
    <path id="Path_71" data-name="Path 71" d="M819.563,431.449l2.229,7.959s3.927,13.69,4.351,14.645,10.719,10.612,11.143,10.825,6.03,3.4,6.03,3.4.443-17.51.019-22.6a14.539,14.539,0,0,1,.276-3.336l-1.443,5.883.106,11.78.849.637-1.91,2.865v-2.122s-6.792-6.58-7.853-9.339-4.882-7.755-4.882-7.755-4.351-7.314-4.457-8.587c-.083-.993-1.91-3.29-2.71-4.251C820.392,431.415,819.563,431.449,819.563,431.449Z" transform="translate(-406.389 -228.263)" opacity="0.1"/>
    <path id="Path_72" data-name="Path 72" d="M889.552,493.457a6.482,6.482,0,0,0,.749,2.076c2.32-.238,10.226-1.713,11.966-10.744-1.038-.97-1.891-1.732-1.891-1.732S889.446,490.91,889.552,493.457Z" transform="translate(-439.236 -252.491)" opacity="0.1"/>
    <path id="Path_73" data-name="Path 73" d="M750.8,616.083c2.142-1.515,4.179-3.583,5.4-4.156a23.443,23.443,0,0,0,4.563-3.608s.7-.476,1.774-1.106c1.97-1.155,5.2-2.827,7.671-3.033,2.216-.185,9.577-.656,15.367-1.017,4.19-.263,7.556-.469,7.556-.469s6.9-2.441,9.869-.849a31.174,31.174,0,0,0,6.686,2.441s0-.231.013-.63l-.013-.006-2.229-3.608-23.542,2.008-2.989-2.008L765.962,601.1l-4.444,2.857-3.833.327,1.715,1.036-8.295,5.332S750.85,613.024,750.8,616.083Z" transform="translate(-374.12 -307.393)" opacity="0.1"/>
    <path id="Path_74" data-name="Path 74" d="M743.763,537.347a9.605,9.605,0,0,0,3.107-1.583v0c2.137-1.513,4.169-3.574,5.383-4.145a23.437,23.437,0,0,0,4.563-3.608s5.624-3.82,9.445-4.139c1.042-.087,3.22-.238,5.837-.407,2.679-.178,5.813-.378,8.664-.554,1.643-.1,3.19-.2,4.5-.282l3.924-.242s6.9-2.441,9.869-.849a31.187,31.187,0,0,0,6.686,2.441s.106-7.429.955-10.506,2.016-8.7,2.016-8.7.955-7.747,1.91-11.249,4.669-23.029,6.58-24.3,2.972.955,2.972.955,12.735-.212,12.947-14.221c0,0-5.943-5.943-6.367-7.429s-6.049-7-6.049-7-3.184-5.943-6.792-6.049a29.03,29.03,0,0,0-5.111.157L805.739,448.1l.106,11.78.849.637-1.91,2.865v-2.122s-6.792-6.58-7.853-9.339-4.882-7.755-4.882-7.755-4.351-7.314-4.457-8.587-3.078-4.686-3.078-4.686a7.741,7.741,0,0,0-1.8,0,1.932,1.932,0,0,1-.79-.11,10.629,10.629,0,0,0-5.3-.3c-3.67.762-9.252,2.156-10.782,3.825-2.335,2.547-5.731,4.988-9.551,15.6l20.588,7.429-1.762,3.349L758.726,491.82s-.543.885-1.28,2.042v0c-.955,1.5-2.233,3.457-3.071,4.536-1.486,1.91-1.061,7.959-1.061,7.959s-.318,2.865-1.38,3.927-.849,4.988-.849,4.988l-2.759,10.294s-2.547,2.335-2.547,3.4S743.763,533,743.763,533,740.685,538.09,743.763,537.347Z" transform="translate(-370.174 -227.719)" fill="#434175"/>
    <path id="Path_75" data-name="Path 75" d="M942.049,646.435s-6.686,2.229-8.49,5.412S942.049,646.435,942.049,646.435Z" transform="translate(-459.79 -329.166)" opacity="0.1"/>
    <path id="Path_76" data-name="Path 76" d="M935.721,633.237c-.212.318-9.157,9.294-8.6,11.461S935.721,633.237,935.721,633.237Z" transform="translate(-456.858 -322.972)" opacity="0.1"/>
    <path id="Path_77" data-name="Path 77" d="M841.147,645.235s-9.975,4.7-10.825,6.756S841.147,645.235,841.147,645.235Z" transform="translate(-411.418 -328.603)" opacity="0.1"/>
    <path id="Path_78" data-name="Path 78" d="M840.428,656.634s-9,3.82-10.232,4.776S840.428,656.634,840.428,656.634Z" transform="translate(-411.337 -333.953)" opacity="0.1"/>
    <path id="Path_79" data-name="Path 79" d="M835.964,671.5s-3.987,2.971-6.185.637S835.964,671.5,835.964,671.5Z" transform="translate(-411.012 -340.652)" opacity="0.1"/>
    <path id="Path_80" data-name="Path 80" d="M854.585,526.051c-.214.318-13.479,24.2-16.981,26S854.585,526.051,854.585,526.051Z" transform="translate(-414.667 -272.669)" opacity="0.1"/>
    <path id="Path_81" data-name="Path 81" d="M855.269,543.049c0,.531-12.947,28.229-15.069,28.547S855.269,543.049,855.269,543.049Z" transform="translate(-415.989 -280.646)" opacity="0.1"/>
    <path id="Path_82" data-name="Path 82" d="M767.962,576.644s-6.253,13.353-8.7,14.114S767.962,576.644,767.962,576.644Z" transform="translate(-377.924 -296.413)" opacity="0.1"/>
    <path id="Path_83" data-name="Path 83" d="M770.7,565.446s-2.156,4.669-3.466,4.669S770.7,565.446,770.7,565.446Z" transform="translate(-381.726 -291.157)" opacity="0.1"/>
    <path id="Path_84" data-name="Path 84" d="M855.086,378.641a18.292,18.292,0,0,1-.918,5.731,15.006,15.006,0,0,1-.531,1.406,5.4,5.4,0,0,1-2.574-1.13,6.371,6.371,0,0,1-1.926-2.059,25.788,25.788,0,0,1-.939-2.68,6.234,6.234,0,0,0-5.036-3.816c.61,1.04-.361,2.468-1.555,2.653a3.8,3.8,0,0,1-3.179-1.417c-.823-.886-1.417-1.964-2.234-2.85a3.8,3.8,0,0,0-3.179-1.417,7.271,7.271,0,0,0-2.76,1.566c-.881.6-2.117,1-2.972.361-.478-.356-.711-.961-1.168-1.348-1.173-.982-3,.032-3.863,1.3-1.332,1.964-2.144,3.152-3.874,4.039-.011-.111-.011-.228-.011-.34a18.359,18.359,0,1,1,36.718,0Z" transform="translate(-405.828 -194.871)" opacity="0.1"/>
    <path id="Path_85" data-name="Path 85" d="M818.575,360.582c.864-1.269,2.688-2.284,3.864-1.3.456.383.689.988,1.165,1.347.853.643,2.091.239,2.973-.362a7.226,7.226,0,0,1,2.758-1.565,3.788,3.788,0,0,1,3.178,1.417c.82.887,1.415,1.963,2.235,2.85a3.785,3.785,0,0,0,3.179,1.415c1.194-.183,2.168-1.612,1.554-2.652a6.236,6.236,0,0,1,5.035,3.815,25.857,25.857,0,0,0,.94,2.68,6.358,6.358,0,0,0,1.929,2.057,4.567,4.567,0,0,0,3.344,1.109c1.19-.207,2.2-1.57,1.644-2.644.38.577,1.2-.227,1.32-.907a9.7,9.7,0,0,0-.245-4.479c-.587-1.973-1.817-3.929-1.343-5.931.375-1.586,1.73-2.724,2.553-4.13a7.466,7.466,0,0,0-.7-8.132,9.246,9.246,0,0,0-7.639-3.348,12.635,12.635,0,0,1-2.4.045,7.9,7.9,0,0,1-3.521-1.884l-8.889-6.939a10.936,10.936,0,0,0-3.36-2.024,3.714,3.714,0,0,0-3.692.675c-1.664,1.664-.607,4.529-1.275,6.786a6.535,6.535,0,0,1-4.37,3.94c-1.929.66-3.992.805-5.974,1.283a3.278,3.278,0,0,0-1.6.744,3.163,3.163,0,0,0-.695,2.256,12.3,12.3,0,0,0,1.38,5.739c1.029,1.98,2.661,4.014,2.083,6.17a7.862,7.862,0,0,1-1.959,2.911c-1.68,1.932-2.247,4.787.914,3.79C816,364.353,816.857,363.108,818.575,360.582Z" transform="translate(-402.15 -181.042)" fill="#434175"/>
    <g id="Group_21" data-name="Group 21" transform="translate(408.392 164.827)" opacity="0.1">
      <path id="Path_86" data-name="Path 86" d="M853.835,388.54c-.123.68-.94,1.484-1.32.907.553,1.073-.454,2.436-1.644,2.643a4.566,4.566,0,0,1-3.344-1.109,6.353,6.353,0,0,1-1.929-2.057,25.833,25.833,0,0,1-.94-2.68,6.236,6.236,0,0,0-5.035-3.815c.614,1.04-.36,2.469-1.554,2.652a3.785,3.785,0,0,1-3.179-1.415c-.82-.887-1.415-1.963-2.235-2.85a3.787,3.787,0,0,0-3.178-1.417,7.224,7.224,0,0,0-2.757,1.565c-.882.6-2.12,1.005-2.973.362-.476-.359-.709-.964-1.165-1.347-1.176-.987-3,.028-3.864,1.3-1.718,2.526-2.572,3.771-5.617,4.731-1,.315-1.625.244-1.961-.06-.668,1.534-.364,2.886,1.961,2.152,3.045-.961,3.9-2.206,5.617-4.731.864-1.269,2.688-2.284,3.864-1.3.456.383.689.989,1.165,1.347.853.643,2.091.239,2.973-.362a7.227,7.227,0,0,1,2.757-1.565,3.787,3.787,0,0,1,3.178,1.417c.82.887,1.415,1.963,2.235,2.85a3.785,3.785,0,0,0,3.179,1.415c1.194-.183,2.168-1.612,1.554-2.652a6.236,6.236,0,0,1,5.035,3.815,25.822,25.822,0,0,0,.94,2.68,6.356,6.356,0,0,0,1.929,2.057,4.567,4.567,0,0,0,3.344,1.109c1.19-.207,2.2-1.57,1.644-2.644.38.577,1.2-.227,1.32-.907a9.691,9.691,0,0,0,.1-2.776C853.906,388.085,853.876,388.313,853.835,388.54Z" transform="translate(-810.682 -368.657)"/>
      <path id="Path_87" data-name="Path 87" d="M813.989,369.914c.008-.027.02-.053.027-.081.578-2.155-1.054-4.19-2.084-6.17a12.3,12.3,0,0,1-1.319-4.482,5.973,5.973,0,0,0-.061.836,12.3,12.3,0,0,0,1.38,5.739A21.626,21.626,0,0,1,813.989,369.914Z" transform="translate(-810.552 -359.182)"/>
      <path id="Path_88" data-name="Path 88" d="M891.335,367.136c-.822,1.406-2.177,2.545-2.553,4.13a4.608,4.608,0,0,0,.019,2.034c.4-1.554,1.722-2.683,2.534-4.072a6.974,6.974,0,0,0,.817-4.48A6.56,6.56,0,0,1,891.335,367.136Z" transform="translate(-847.218 -361.794)"/>
    </g>
    <path id="Path_89" data-name="Path 89" d="M770.757,520.751v0a16.19,16.19,0,0,1,.325,1.777s8.384,19.633,9.445,20.8c.327.359,1.558,2.125,3.105,4.4.56.821,1.161,1.711,1.776,2.623,3.209,4.763,6.792,10.171,6.792,10.171l7.853,6.9s17.084,1.367,22.513-4.177c-.658-.458-1.076-.7-1.076-.7l-2.335-1.815c-1.206-2.033-5.816-4.013-10.483-5.569-4.3.032-7.817.38-7.817.38l-1.119-2.946-1.167-3.073-5.937-15.63s-3.829-19.739-5.1-20.694-.955-3.927-.955-3.927,2.335-8.384,1.486-9.551,1.38-9.763,1.38-9.763a8.908,8.908,0,0,0-1.019-2.381l-16.385,31.141S771.494,519.594,770.757,520.751Z" transform="translate(-383.484 -254.608)" opacity="0.1"/>
    <path id="Path_90" data-name="Path 90" d="M786.933,482.887s-2.229,8.6-1.38,9.763-1.486,9.551-1.486,9.551-.318,2.971.955,3.926,5.1,20.694,5.1,20.694l8.222,21.649s25.729-2.547,23.076,5.518-23.878,6.367-23.878,6.367l-7.853-6.9s-10.612-16.025-11.673-17.192-9.445-20.8-9.445-20.8-.424-3.926-2.228-5.943-.425-5.427-.425-5.427-2.229-25.667.106-28.745S784.492,473.655,786.933,482.887Z" transform="translate(-380.764 -248.183)" fill="#ee8e9e"/>
    <path id="Path_91" data-name="Path 91" d="M772.652,459.167l-6.686,4.033s-1.91,6.474-3.4,7.323c0,0,13.372-7.429,23.453,9.657,0,0-.318-2.229,1.061-3.29s1.061-5.625,1.061-5.625a18.372,18.372,0,0,0,.955-2.229C790.056,466.7,785.068,453.331,772.652,459.167Z" transform="translate(-379.642 -240.593)" opacity="0.1"/>
    <path id="Path_92" data-name="Path 92" d="M772.252,458.368l-6.686,4.033s-1.91,6.474-3.4,7.323c0,0,13.372-7.429,23.453,9.657,0,0-.318-2.229,1.061-3.29s1.061-5.625,1.061-5.625a18.384,18.384,0,0,0,.955-2.229C789.656,465.9,784.668,452.531,772.252,458.368Z" transform="translate(-379.454 -240.218)" fill="#434175"/>
    <ellipse id="Ellipse_32" data-name="Ellipse 32" cx="19.931" cy="21.156" rx="19.931" ry="21.156" transform="translate(313.276 361.687)" fill="#fbd56f"/>
    <ellipse id="Ellipse_33" data-name="Ellipse 33" cx="19.931" cy="21.156" rx="19.931" ry="21.156" transform="translate(313.276 361.687)" opacity="0.1"/>
    <ellipse id="Ellipse_34" data-name="Ellipse 34" cx="19.931" cy="20.685" rx="19.931" ry="20.685" transform="translate(316.716 362.63)" fill="#fbd56f"/>
    <ellipse id="Ellipse_35" data-name="Ellipse 35" cx="24.616" cy="4.161" rx="24.616" ry="4.161" transform="translate(23.221 386.147)" fill="#77e8b0"/>
    <path id="Path_93" data-name="Path 93" d="M130.176,761.21a7.145,7.145,0,0,0,2.347-3.542,3.149,3.149,0,0,0-1.64-3.608c-1.506-.576-3.116.468-4.336,1.522s-2.619,2.258-4.216,2.034a6.418,6.418,0,0,0,1.985-6.007,2.509,2.509,0,0,0-.552-1.22c-.836-.894-2.352-.51-3.353.194-3.184,2.239-4.072,6.564-4.089,10.456a19.783,19.783,0,0,1-.059-4.307,4.419,4.419,0,0,0-1.618-3.81,4.873,4.873,0,0,0-2.467-.58c-1.431-.053-3.025.091-4,1.138-1.214,1.3-.9,3.483.157,4.914a15.512,15.512,0,0,0,4.143,3.318,9.185,9.185,0,0,1,2.96,2.824,2.8,2.8,0,0,1,.219.5h8.972a25,25,0,0,0,5.548-3.832Z" transform="translate(-72.16 -377.709)" fill="#77e8b0"/>
    <path id="Path_94" data-name="Path 94" d="M529.1,729.646a21.454,21.454,0,0,1,2.668,4.872c.178.448.353.919.518,1.413,2.652,7.926-1.55,17.43-2.752,16.405s-4.945-2.927-5.669-.254a15.339,15.339,0,0,1-3.4,5.405c-4.872,4.9-9.282-.394-12.176-5.864a53.019,53.019,0,0,1-2.518-5.564c-.643-1.68-1.012-2.841-1.012-2.841l20.292-17.289A12.013,12.013,0,0,1,529.1,729.646Z" transform="translate(-258.648 -366.473)" fill="#77e8b0"/>
    <path id="Path_95" data-name="Path 95" d="M468.833,750.478a21.46,21.46,0,0,1,2.668,4.872c.178.448.353.919.518,1.412,2.652,7.926-1.55,17.43-2.751,16.405s-4.945-2.928-5.669-.254a15.341,15.341,0,0,1-3.4,5.405c-4.872,4.9-9.282-.394-12.176-5.864a53.005,53.005,0,0,1-2.518-5.564c-.643-1.68-1.012-2.841-1.012-2.841l20.292-17.289A12.012,12.012,0,0,1,468.833,750.478Z" transform="translate(-230.365 -376.25)" fill="#77e8b0"/>
    <path id="Path_96" data-name="Path 96" d="M342.217,777.73a21.46,21.46,0,0,1-1.055,5.453c-.149.459-.315.932-.5,1.418-3.017,7.794-12.317,12.43-12.588,10.874s-1.939-5.41-4.2-3.814a15.34,15.34,0,0,1-6.066,1.993c-6.878.663-6.894-6.227-5.632-12.286a53,53,0,0,1,1.612-5.891c.577-1.7,1.034-2.833,1.034-2.833l26.656-.361A12.012,12.012,0,0,1,342.217,777.73Z" transform="translate(-167.964 -388.229)" fill="#77e8b0"/>
    <path id="Path_97" data-name="Path 97" d="M277.318,761.362a21.455,21.455,0,0,1-1.055,5.453c-.149.459-.315.932-.5,1.418-3.017,7.794-12.317,12.43-12.588,10.874s-1.939-5.41-4.2-3.814a15.337,15.337,0,0,1-6.066,1.993c-6.878.663-6.894-6.227-5.632-12.286a52.989,52.989,0,0,1,1.612-5.891c.577-1.7,1.034-2.833,1.034-2.833l26.656-.36A12.012,12.012,0,0,1,277.318,761.362Z" transform="translate(-137.506 -380.548)" fill="#77e8b0"/>
    <path id="Path_98" data-name="Path 98" d="M529.1,729.646a21.454,21.454,0,0,1,2.668,4.872c.178.448.353.919.518,1.413,2.652,7.926-1.55,17.43-2.752,16.405s-4.945-2.927-5.669-.254a15.339,15.339,0,0,1-3.4,5.405c-4.872,4.9-9.282-.394-12.176-5.864a53.019,53.019,0,0,1-2.518-5.564c-.643-1.68-1.012-2.841-1.012-2.841l20.292-17.289A12.013,12.013,0,0,1,529.1,729.646Z" transform="translate(-258.648 -366.473)" opacity="0.2"/>
    <path id="Path_99" data-name="Path 99" d="M468.833,750.478a21.46,21.46,0,0,1,2.668,4.872c.178.448.353.919.518,1.412,2.652,7.926-1.55,17.43-2.751,16.405s-4.945-2.928-5.669-.254a15.341,15.341,0,0,1-3.4,5.405c-4.872,4.9-9.282-.394-12.176-5.864a53.005,53.005,0,0,1-2.518-5.564c-.643-1.68-1.012-2.841-1.012-2.841l20.292-17.289A12.012,12.012,0,0,1,468.833,750.478Z" transform="translate(-230.365 -376.25)" opacity="0.2"/>
    <path id="Path_100" data-name="Path 100" d="M342.217,777.73a21.46,21.46,0,0,1-1.055,5.453c-.149.459-.315.932-.5,1.418-3.017,7.794-12.317,12.43-12.588,10.874s-1.939-5.41-4.2-3.814a15.34,15.34,0,0,1-6.066,1.993c-6.878.663-6.894-6.227-5.632-12.286a53,53,0,0,1,1.612-5.891c.577-1.7,1.034-2.833,1.034-2.833l26.656-.361A12.012,12.012,0,0,1,342.217,777.73Z" transform="translate(-167.964 -388.229)" opacity="0.2"/>
    <path id="Path_101" data-name="Path 101" d="M277.318,761.362a21.455,21.455,0,0,1-1.055,5.453c-.149.459-.315.932-.5,1.418-3.017,7.794-12.317,12.43-12.588,10.874s-1.939-5.41-4.2-3.814a15.337,15.337,0,0,1-6.066,1.993c-6.878.663-6.894-6.227-5.632-12.286a52.989,52.989,0,0,1,1.612-5.891c.577-1.7,1.034-2.833,1.034-2.833l26.656-.36A12.012,12.012,0,0,1,277.318,761.362Z" transform="translate(-137.506 -380.548)" opacity="0.2"/>
    <path id="Path_102" data-name="Path 102" d="M413.4,432.04c0,71.2-24.085,128.913-135.23,128.913-74.685,0-132.466-18.557-135.23-128.913-1.783-71.174,60.544-128.912,135.23-128.912S413.4,360.844,413.4,432.04Z" transform="translate(-88.826 -168.048)" fill="#77e8b0"/>
    <path id="Path_103" data-name="Path 103" d="M349.994,307.369h.016l-.012,0Z" transform="translate(-186.015 -170.038)" opacity="0.2"/>
    <path id="Path_104" data-name="Path 104" d="M350.325,307.088c.344-.055,1.023-.15,2.01-.225l-2.2.261q.047-.012.118-.024Z" transform="translate(-186.081 -169.801)" opacity="0.2"/>
    <path id="Path_105" data-name="Path 105" d="M452.208,358.219l-9.871,3.553a220.49,220.49,0,0,0-16.216-19.331,158.406,158.406,0,0,0-20.535-18.4c-25.273-18.731-44.821-19.209-51.277-18.727l14.838-1.745a120.639,120.639,0,0,1,39.835,14.4,131.6,131.6,0,0,1,23.939,17.684C445.839,347.649,452.208,358.219,452.208,358.219Z" transform="translate(-188.04 -168.258)" opacity="0.2"/>
    <path id="Path_106" data-name="Path 106" d="M364.959,369.952s-13.029-43.431-1.974-55.276c0,0,17.373-5.922,30.4,27.638Z" transform="translate(-190.024 -173.278)" opacity="0.2"/>
    <path id="Path_107" data-name="Path 107" d="M494.962,320.958s34.553-29.363,49.838-23.99c0,0,12.4,13.536-13.116,38.938Z" transform="translate(-254.05 -164.849)" fill="#77e8b0"/>
    <path id="Path_108" data-name="Path 108" d="M494.962,320.958s34.553-29.363,49.838-23.99c0,0,12.4,13.536-13.116,38.938Z" transform="translate(-254.05 -164.849)" opacity="0.2"/>
    <path id="Path_109" data-name="Path 109" d="M615.247,546.412c0,38.269-27.462,68.5-53.3,68.5s-40.273-30.234-40.273-68.5,20.991-67.8,46.788-69.293C609.325,474.75,615.247,508.142,615.247,546.412Z" transform="translate(-266.586 -249.649)" fill="#77e8b0"/>
    <path id="Path_110" data-name="Path 110" d="M615.247,546.412c0,38.269-27.462,68.5-53.3,68.5s-40.273-30.234-40.273-68.5,20.991-67.8,46.788-69.293C609.325,474.75,615.247,508.142,615.247,546.412Z" transform="translate(-266.586 -249.649)" opacity="0.2"/>
    <ellipse id="Ellipse_36" data-name="Ellipse 36" cx="8.686" cy="11.055" rx="8.686" ry="11.055" transform="translate(285.094 291.433)" fill="#77e8b0"/>
    <ellipse id="Ellipse_37" data-name="Ellipse 37" cx="8.686" cy="11.055" rx="8.686" ry="11.055" transform="translate(315.89 281.957)" fill="#77e8b0"/>
    <path id="Path_111" data-name="Path 111" d="M479.953,336.985a15.765,15.765,0,0,1-1.686,7.131,15.152,15.152,0,0,1-6.8,6.783,158.4,158.4,0,0,0-20.535-18.4,15.476,15.476,0,0,1,3.4-6.073,14.556,14.556,0,0,1,10.795-4.837C473.311,321.594,479.953,328.484,479.953,336.985Z" transform="translate(-233.387 -176.714)" fill="#fad46f"/>
  </g>
</svg>
